<svg width="179" height="47" viewBox="0 0 179 47" fill="none" xmlns="http://www.w3.org/2000/svg">
<path fill-rule="evenodd" clip-rule="evenodd" d="M7.3408 40.6575L4.67548 42.2805C2.62065 43.5164 0 42.0423 0 39.645V7.36332C0 4.95113 2.62065 3.47702 4.67548 4.72778L13.5797 10.1329C13.1777 10.0584 12.7608 10.0138 12.329 10.0138C8.10019 10.0138 4.66059 13.3491 4.45213 17.5183H7.81728C8.30866 17.5183 8.80003 17.9204 8.82981 18.4266C8.85959 18.9776 8.41289 19.4392 7.86195 19.4392H4.45213V21.3153H7.86195C8.41289 21.3153 8.85959 21.762 8.82981 22.3278C8.80003 22.849 8.33844 23.2361 7.81728 23.2361H4.45213V25.0974H7.81728C8.30866 25.0974 8.80003 25.5143 8.82981 26.0206C8.85959 26.5715 8.41289 27.0331 7.86195 27.0331H4.45213C4.66059 31.2023 8.10019 34.5228 12.329 34.5228C12.463 34.5228 12.597 34.5079 12.7459 34.5079L11.1527 36.2203V38.3496L11.0186 38.424H9.67854C8.42778 38.424 7.40036 39.4216 7.3408 40.6575ZM31.284 26.1397L13.5053 36.9201V34.4335C17.1682 33.8825 20.0122 30.8003 20.1909 27.0331H16.7811C16.2302 27.0331 15.7984 26.5715 15.8133 26.0206C15.843 25.5143 16.3344 25.0974 16.8407 25.0974H20.2058V23.2361H16.7811C16.2302 23.2361 15.7984 22.7745 15.8133 22.2236C15.843 21.7025 16.3195 21.3153 16.8407 21.3153H20.2058V19.4392H16.8407C16.3344 19.4392 15.843 19.0371 15.8133 18.5309C15.7984 17.9799 16.2302 17.5183 16.7811 17.5183H20.1909C20.1165 15.8953 19.5507 14.4063 18.6424 13.1853L31.284 20.8686C33.2644 22.0598 33.2644 24.9336 31.284 26.1397Z" fill="url(#paint0_linear_1_1363)"/>
<path style="mix-blend-mode:multiply" fill-rule="evenodd" clip-rule="evenodd" d="M12.7459 34.5079L11.1527 36.2203V38.3496L11.0186 38.424H9.67854C8.42778 38.424 7.40036 39.4216 7.3408 40.6575L4.67548 42.2805C2.62065 43.5164 0 42.0423 0 39.645V7.36332C0 4.95113 2.62065 3.47702 4.67548 4.72778L13.5797 10.1329C13.1777 10.0584 12.7608 10.0138 12.329 10.0138C8.10019 10.0138 4.66059 13.3491 4.45213 17.5183H7.81728C8.30866 17.5183 8.80003 17.9204 8.82981 18.4266C8.85959 18.9776 8.41289 19.4392 7.86195 19.4392H4.45213V21.3153H7.86195C8.41289 21.3153 8.85959 21.762 8.82981 22.3278C8.80003 22.849 8.33844 23.2361 7.81728 23.2361H4.45213V25.0974H7.81728C8.30866 25.0974 8.80003 25.5143 8.82981 26.0206C8.85959 26.5715 8.41289 27.0331 7.86195 27.0331H4.45213C4.66059 31.2023 8.10019 34.5228 12.329 34.5228C12.463 34.5228 12.597 34.5079 12.7459 34.5079ZM23.02 31.1428L13.5053 36.9201V34.4335C17.1682 33.8825 20.0122 30.8003 20.1909 27.0331H16.7811C16.2302 27.0331 15.7984 26.5715 15.8133 26.0206C15.843 25.5143 16.3344 25.0974 16.8407 25.0974H20.2058V23.2361H16.7811C16.2302 23.2361 15.7984 22.7745 15.8133 22.2236C15.843 21.7025 16.3195 21.3153 16.8407 21.3153H20.2058V19.7668C20.9057 21.4344 21.5013 23.1617 21.9777 24.9485C22.5436 27.0927 22.886 29.1624 23.02 31.1428ZM16.7811 17.5183H19.1635C19.4812 18.1437 19.779 18.784 20.0569 19.4392H16.8407C16.3344 19.4392 15.843 19.0371 15.8133 18.5309C15.7984 17.9799 16.2302 17.5183 16.7811 17.5183Z" fill="url(#paint1_linear_1_1363)"/>
<path style="mix-blend-mode:screen" fill-rule="evenodd" clip-rule="evenodd" d="M4.45213 20.6453V19.4392H7.86195C8.41289 19.4392 8.85959 18.9776 8.82981 18.4266C8.80003 17.9204 8.30866 17.5183 7.81729 17.5183H4.45213C4.66059 13.3491 8.10019 10.0138 12.329 10.0138C12.7608 10.0138 13.1777 10.0584 13.5797 10.1329L4.67548 4.72778C2.62065 3.47702 0 4.95113 0 7.36332V16.9823C1.31033 18.3075 2.79933 19.5285 4.45213 20.6453ZM8.82981 22.3278C8.85959 21.762 8.41289 21.3153 7.86195 21.3153H5.47954C6.44243 21.9109 7.45 22.4668 8.50223 22.983C8.6958 22.8192 8.81492 22.581 8.82981 22.3278ZM31.284 20.8686L18.6424 13.1853C19.5507 14.4063 20.1165 15.8953 20.1909 17.5183H16.7811C16.2302 17.5183 15.7984 17.9799 15.8133 18.5309C15.843 19.0371 16.3344 19.4392 16.8407 19.4392H20.2058V21.3153H16.8407C16.3195 21.3153 15.843 21.7025 15.8133 22.2236C15.7984 22.7745 16.2302 23.2361 16.7811 23.2361H20.2058V25.0974H16.8407C16.4535 25.0974 16.0962 25.3356 15.9175 25.6632C17.3767 26.0206 18.8806 26.3035 20.4143 26.4822C24.3304 26.9587 28.038 26.78 31.3883 26.0652C33.2495 24.8294 33.2197 22.0449 31.284 20.8686Z" fill="url(#paint2_linear_1_1363)"/>
<path style="mix-blend-mode:screen" fill-rule="evenodd" clip-rule="evenodd" d="M31.284 26.1396L13.5053 36.92V34.4334C17.1682 33.8824 20.0122 30.8002 20.1909 27.033H16.7811C16.2302 27.033 15.7984 26.5714 15.8133 26.0205C15.843 25.5142 16.3344 25.0973 16.8407 25.0973H20.2058V23.236H16.7811C16.2302 23.236 15.7984 22.7744 15.8133 22.2235C15.843 21.7024 16.3195 21.3152 16.8407 21.3152H20.2058V19.4391H16.8407C16.3344 19.4391 15.843 19.037 15.8133 18.5308C15.7984 17.9798 16.2302 17.5182 16.7811 17.5182H20.1909C20.1314 16.3866 19.8336 15.3145 19.3571 14.3616C19.7045 14.3218 20.052 14.2871 20.3994 14.2573L31.284 20.8685C33.2644 22.0597 33.2644 24.9335 31.284 26.1396ZM0 39.6449V27.4797C1.19121 25.2313 2.79933 23.1318 4.73504 21.3152H7.86195C8.41289 21.3152 8.85959 21.7619 8.82981 22.3277C8.80003 22.8489 8.33844 23.236 7.81729 23.236H4.45213V25.0973H7.81729C8.30866 25.0973 8.80003 25.5142 8.82981 26.0205C8.85959 26.5714 8.41289 27.033 7.86195 27.033H4.45213C4.66059 31.2022 8.10019 34.5227 12.329 34.5227C12.463 34.5227 12.597 34.5078 12.7459 34.5078L11.1527 36.2202V38.3495L11.0186 38.4239H9.67854C8.42778 38.4239 7.40036 39.4215 7.3408 40.6574L4.67548 42.2804C2.62065 43.5163 0 42.0422 0 39.6449ZM6.92388 19.4391C7.51948 18.9924 8.13494 18.5705 8.77025 18.1734C8.80003 18.2479 8.82981 18.3372 8.82981 18.4265C8.85959 18.9775 8.41289 19.4391 7.86195 19.4391H6.92388Z" fill="url(#paint3_linear_1_1363)"/>
<path d="M43.7074 37V12.3891H54.0987C54.338 12.3891 54.657 12.4005 55.0558 12.4233C55.466 12.4347 55.8306 12.4688 56.1496 12.5258C57.6194 12.7537 58.8215 13.2379 59.7558 13.9785C60.7015 14.7192 61.3965 15.6535 61.8409 16.7815C62.2852 17.8981 62.5074 19.1457 62.5074 20.5244C62.5074 21.903 62.2795 23.1564 61.8238 24.2844C61.3794 25.401 60.6844 26.3296 59.7387 27.0702C58.8044 27.8108 57.608 28.295 56.1496 28.5229C55.8306 28.5685 55.466 28.6027 55.0558 28.6255C54.6456 28.6482 54.3266 28.6596 54.0987 28.6596H48.3562V37H43.7074ZM48.3562 24.3185H53.8936C54.1329 24.3185 54.3949 24.3072 54.6798 24.2844C54.9646 24.2616 55.2267 24.216 55.466 24.1476C56.0926 23.9767 56.5769 23.6919 56.9187 23.2931C57.2605 22.8829 57.4941 22.4328 57.6194 21.9429C57.7562 21.4416 57.8245 20.9687 57.8245 20.5244C57.8245 20.08 57.7562 19.6128 57.6194 19.1229C57.4941 18.6216 57.2605 18.1715 56.9187 17.7727C56.5769 17.3625 56.0926 17.072 55.466 16.9011C55.2267 16.8327 54.9646 16.7872 54.6798 16.7644C54.3949 16.7416 54.1329 16.7302 53.8936 16.7302H48.3562V24.3185ZM72.2022 37.5127C70.345 37.5127 68.7157 37.0968 67.3142 36.2651C65.9128 35.4333 64.819 34.2882 64.0328 32.8298C63.258 31.36 62.8706 29.6737 62.8706 27.7709C62.8706 25.8453 63.2694 24.1533 64.067 22.6949C64.8645 21.2251 65.9641 20.08 67.3655 19.2596C68.767 18.4393 70.3792 18.0291 72.2022 18.0291C74.0595 18.0291 75.6888 18.445 77.0902 19.2767C78.5031 20.1085 79.6026 21.2593 80.3888 22.7291C81.175 24.1875 81.5681 25.8681 81.5681 27.7709C81.5681 29.6851 81.1693 31.3771 80.3717 32.8469C79.5855 34.3053 78.486 35.4504 77.0732 36.2822C75.6717 37.1025 74.0481 37.5127 72.2022 37.5127ZM72.2022 33.1716C73.6948 33.1716 74.8058 32.6703 75.535 31.6676C76.2756 30.6536 76.6459 29.3547 76.6459 27.7709C76.6459 26.1302 76.2699 24.8199 75.5179 23.84C74.7773 22.8601 73.6721 22.3702 72.2022 22.3702C71.1882 22.3702 70.3564 22.5981 69.707 23.0538C69.0575 23.5096 68.5733 24.1419 68.2542 24.9509C67.9466 25.7599 67.7928 26.6999 67.7928 27.7709C67.7928 29.423 68.1631 30.739 68.9037 31.7189C69.6557 32.6874 70.7552 33.1716 72.2022 33.1716ZM91.1032 37.5127C89.4055 37.5127 87.9186 37.0855 86.6425 36.2309C85.3663 35.3764 84.3694 34.2142 83.6515 32.7444C82.9451 31.2745 82.5919 29.6167 82.5919 27.7709C82.5919 25.8909 82.9508 24.2217 83.6686 22.7633C84.3979 21.2935 85.4176 20.137 86.7279 19.2938C88.0382 18.4507 89.5764 18.0291 91.3425 18.0291C93.0971 18.0291 94.5726 18.4564 95.769 19.3109C96.9654 20.1655 97.8712 21.3276 98.4865 22.7975C99.1017 24.2673 99.4094 25.9251 99.4094 27.7709C99.4094 29.6167 99.096 31.2745 98.4694 32.7444C97.8541 34.2142 96.9312 35.3764 95.7006 36.2309C94.4701 37.0855 92.9376 37.5127 91.1032 37.5127ZM91.8552 33.3767C92.892 33.3767 93.7181 33.1432 94.3334 32.676C94.96 32.2088 95.4101 31.5537 95.6835 30.7105C95.957 29.8674 96.0937 28.8875 96.0937 27.7709C96.0937 26.6543 95.957 25.6744 95.6835 24.8313C95.4101 23.9881 94.9714 23.333 94.3675 22.8658C93.7751 22.3987 92.9946 22.1651 92.0261 22.1651C90.9892 22.1651 90.1347 22.4215 89.4625 22.9342C88.8016 23.4355 88.3117 24.1135 87.9926 24.968C87.6736 25.8112 87.5141 26.7455 87.5141 27.7709C87.5141 28.8078 87.6679 29.7535 87.9755 30.608C88.2832 31.4512 88.756 32.1234 89.3941 32.6247C90.0322 33.1261 90.8525 33.3767 91.8552 33.3767ZM96.0937 37V24.3527H95.5126V12.3891H100.196V37H96.0937ZM111.407 37.5127C109.493 37.5127 107.852 37.0855 106.485 36.2309C105.118 35.3764 104.069 34.2142 103.34 32.7444C102.611 31.2745 102.246 29.6167 102.246 27.7709C102.246 25.9023 102.622 24.2331 103.374 22.7633C104.138 21.2935 105.209 20.137 106.588 19.2938C107.966 18.4507 109.596 18.0291 111.476 18.0291C113.652 18.0291 115.475 18.5817 116.945 19.6869C118.426 20.7807 119.372 22.279 119.782 24.1818L115.133 25.4124C114.86 24.4553 114.381 23.709 113.697 23.1735C113.025 22.6379 112.262 22.3702 111.407 22.3702C110.427 22.3702 109.624 22.6095 108.997 23.088C108.371 23.5552 107.909 24.1989 107.613 25.0193C107.317 25.8282 107.169 26.7455 107.169 27.7709C107.169 29.3775 107.522 30.6821 108.228 31.6847C108.946 32.676 110.006 33.1716 111.407 33.1716C112.455 33.1716 113.253 32.9324 113.8 32.4538C114.347 31.9753 114.757 31.2916 115.03 30.4029L119.782 31.3942C119.258 33.3539 118.266 34.8636 116.808 35.9233C115.349 36.9829 113.549 37.5127 111.407 37.5127ZM126.285 37.5127C124.963 37.5127 123.841 37.2621 122.918 36.7607C122.006 36.248 121.311 35.5701 120.833 34.7269C120.365 33.8724 120.132 32.9324 120.132 31.9069C120.132 31.0524 120.263 30.2719 120.525 29.5655C120.787 28.859 121.209 28.2381 121.79 27.7025C122.382 27.1556 123.174 26.6999 124.165 26.3353C124.849 26.0846 125.664 25.8624 126.609 25.6687C127.555 25.475 128.626 25.2927 129.822 25.1218C131.019 24.9395 132.335 24.7401 133.77 24.5236L132.095 25.4465C132.095 24.3527 131.833 23.5495 131.309 23.0367C130.785 22.524 129.908 22.2676 128.677 22.2676C127.994 22.2676 127.282 22.4328 126.541 22.7633C125.8 23.0937 125.282 23.6805 124.986 24.5236L120.781 23.1905C121.248 21.6638 122.126 20.4218 123.413 19.4647C124.701 18.5076 126.455 18.0291 128.677 18.0291C130.307 18.0291 131.754 18.2798 133.018 18.7811C134.283 19.2824 135.24 20.1484 135.89 21.3789C136.254 22.0625 136.471 22.7462 136.539 23.4298C136.607 24.1135 136.642 24.8768 136.642 25.72V37H132.574V33.2058L133.155 33.992C132.255 35.2339 131.281 36.1341 130.233 36.6924C129.196 37.2393 127.88 37.5127 126.285 37.5127ZM127.276 33.8553C128.13 33.8553 128.848 33.7072 129.429 33.4109C130.022 33.1033 130.489 32.7558 130.831 32.3684C131.184 31.981 131.423 31.6562 131.549 31.3942C131.788 30.8928 131.925 30.3118 131.959 29.6509C132.004 28.9787 132.027 28.4204 132.027 27.976L133.394 28.3178C132.016 28.5457 130.899 28.7394 130.045 28.8989C129.19 29.047 128.501 29.1838 127.977 29.3091C127.452 29.4344 126.991 29.5712 126.592 29.7193C126.136 29.9016 125.766 30.101 125.481 30.3175C125.208 30.5225 125.003 30.7504 124.866 31.0011C124.741 31.2518 124.678 31.5309 124.678 31.8385C124.678 32.2601 124.781 32.6247 124.986 32.9324C125.202 33.2286 125.504 33.4565 125.891 33.616C126.279 33.7755 126.74 33.8553 127.276 33.8553ZM146.589 37.5127C144.264 37.5127 142.384 36.9886 140.949 35.9404C139.525 34.8807 138.659 33.3881 138.351 31.4625L143.102 30.7447C143.296 31.6107 143.723 32.2886 144.384 32.7785C145.056 33.2685 145.905 33.5135 146.931 33.5135C147.774 33.5135 148.423 33.3539 148.879 33.0349C149.335 32.7045 149.563 32.2487 149.563 31.6676C149.563 31.303 149.471 31.0125 149.289 30.796C149.107 30.5681 148.697 30.3459 148.059 30.1295C147.432 29.913 146.452 29.6281 145.119 29.2749C143.615 28.8875 142.413 28.4545 141.513 27.976C140.613 27.4975 139.963 26.9278 139.564 26.2669C139.166 25.5947 138.966 24.7857 138.966 23.84C138.966 22.655 139.268 21.6296 139.872 20.7636C140.476 19.8863 141.325 19.2141 142.419 18.7469C143.524 18.2684 144.823 18.0291 146.315 18.0291C147.762 18.0291 149.044 18.2513 150.161 18.6956C151.277 19.14 152.178 19.7724 152.861 20.5927C153.556 21.4131 153.983 22.3816 154.143 23.4982L149.392 24.3527C149.312 23.6691 149.016 23.1279 148.503 22.7291C147.99 22.3303 147.295 22.0967 146.418 22.0284C145.563 21.9714 144.874 22.0853 144.35 22.3702C143.837 22.655 143.581 23.0652 143.581 23.6007C143.581 23.9198 143.689 24.1875 143.906 24.404C144.133 24.6205 144.595 24.8427 145.29 25.0705C145.996 25.2984 147.067 25.5947 148.503 25.9593C149.904 26.3239 151.027 26.7512 151.87 27.2411C152.724 27.7196 153.345 28.3007 153.733 28.9844C154.12 29.6566 154.314 30.4713 154.314 31.4284C154.314 33.3198 153.63 34.8067 152.263 35.8891C150.896 36.9715 149.004 37.5127 146.589 37.5127ZM156.702 15.9782V11.8764H161.351V15.9782H156.702ZM156.702 37V18.5418H161.351V37H156.702ZM175.841 37C174.565 37.2393 173.311 37.3418 172.081 37.3076C170.862 37.2848 169.768 37.0741 168.799 36.6753C167.842 36.2651 167.113 35.6099 166.612 34.7098C166.156 33.8667 165.917 33.0121 165.894 32.1462C165.871 31.2688 165.86 30.2776 165.86 29.1724V13.4145H170.508V28.8989C170.508 29.6167 170.514 30.2662 170.525 30.8473C170.548 31.417 170.668 31.8727 170.884 32.2145C171.295 32.864 171.95 33.2172 172.85 33.2742C173.75 33.3312 174.747 33.2856 175.841 33.1375V37ZM162.715 22.1309V18.5418H175.841V22.1309H162.715Z" fill="white"/>
<defs>
<linearGradient id="paint0_linear_1_1363" x1="23.5406" y1="-11.1315" x2="65.0595" y2="30.3874" gradientUnits="userSpaceOnUse">
<stop stop-color="#FD6D6D"/>
<stop offset="1" stop-color="#F97535"/>
</linearGradient>
<linearGradient id="paint1_linear_1_1363" x1="-23.1895" y1="6.72856" x2="0.555087" y2="-15.7833" gradientUnits="userSpaceOnUse">
<stop stop-color="white"/>
<stop offset="0.987" stop-color="#D937BE"/>
<stop offset="1" stop-color="#D837BF"/>
</linearGradient>
<linearGradient id="paint2_linear_1_1363" x1="20.5912" y1="-6.66744" x2="32.4836" y2="30.5707" gradientUnits="userSpaceOnUse">
<stop stop-color="#FD6D6D"/>
<stop offset="0.5" stop-color="#71381D"/>
<stop offset="1" stop-color="#F97535"/>
</linearGradient>
<linearGradient id="paint3_linear_1_1363" x1="8.7631" y1="-10.2741" x2="35.9592" y2="23.1162" gradientUnits="userSpaceOnUse">
<stop stop-color="#FD6D6D"/>
<stop offset="1"/>
</linearGradient>
</defs>
</svg>
